<?xml version="1.0" encoding="UTF-8"?>
<svg xmlns="http://www.w3.org/2000/svg" xmlns:xlink="http://www.w3.org/1999/xlink" width="600px" height="150px" viewBox="0 0 600 150" version="1.1">
<defs>
<clipPath id="clip1">
  <path d="M 0 0 L 600 0 L 600 109 L 0 109 Z M 0 0 "/>
</clipPath>
<clipPath id="clip2">
  <path d="M -22.296875 -91.367188 L 785.292969 10.832031 L 754.011719 149.863281 L -53.574219 47.667969 Z M -22.296875 -91.367188 "/>
</clipPath>
<clipPath id="clip3">
  <path d="M 858.535156 -312.777344 L 50.953125 -414.972656 L -53.203125 47.984375 L 754.386719 150.179688 Z M 858.535156 -312.777344 "/>
</clipPath>
</defs>
<g id="surface1">
<rect x="0" y="0" width="600" height="150" style="fill:rgb(100%,99.607843%,100%);fill-opacity:1;stroke:none;"/>
<g clip-path="url(#clip1)" clip-rule="nonzero">
<g clip-path="url(#clip2)" clip-rule="nonzero">
<g clip-path="url(#clip3)" clip-rule="nonzero">
<path style=" stroke:none;fill-rule:nonzero;fill:rgb(45.882353%,64.705882%,70.588235%);fill-opacity:1;" d="M -30.75 11.21875 C 47.628906 50.03125 139.847656 72.34375 234.089844 76.667969 C 254.113281 77.679688 274.480469 77.214844 296.8125 77 C 333.597656 75.574219 364.808594 71.917969 400.285156 67.285156 C 442.011719 61.917969 482.761719 51.867188 524.484375 46.5 C 587.234375 37.714844 652.902344 42.984375 704.035156 76.828125 C 712.886719 82.507812 717.796875 87.691406 726.644531 93.375 C 731.558594 98.558594 736.46875 103.742188 741.378906 108.925781 C 783.339844 21.46875 789.511719 -68.996094 792.410156 -162.914062 C 793.175781 -202.359375 796.582031 -244.507812 828.203125 -277.007812 C 753.433594 -313.839844 667.457031 -336.886719 577.488281 -342.191406 C 547.28125 -342.972656 519.035156 -343.503906 488.496094 -342.804688 C 463.859375 -341.363281 442.832031 -337.941406 420.167969 -336.246094 C 367.933594 -329.167969 316.996094 -318.886719 264.761719 -311.808594 C 225.339844 -307.671875 182.644531 -306.992188 145.246094 -320.851562 C 143.277344 -321.097656 139.339844 -321.597656 137.371094 -321.847656 C 105.878906 -334.957031 77.6875 -353.730469 56.074219 -374.714844 C 39.546875 -337.265625 24.65625 -298.089844 17.644531 -257.917969 C 14.957031 -236.96875 12.269531 -216.015625 9.582031 -195.066406 C 7.171875 -157.351562 7.066406 -120.867188 4.660156 -83.152344 C 4.609375 -64.910156 -1.019531 -48.894531 -6.980469 -31.398438 C -10.308594 -16.613281 -15.9375 -0.59375 -30.75 11.21875 Z M -30.75 11.21875 "/>
</g>
</g>
</g>
<path style=" stroke:none;fill-rule:nonzero;fill:rgb(100%,99.607843%,100%);fill-opacity:1;" d="M 217.832031 33.433594 C 218.492188 33.074219 218.253906 32.535156 217.589844 32.535156 L 211.472656 32.535156 C 210.816406 32.535156 210.632812 33.074219 211.230469 33.433594 C 213.273438 34.605469 213.695312 34.515625 213.695312 36.179688 L 213.695312 51.796875 L 203.433594 35.640625 C 201.992188 33.480469 200.195312 32.535156 196.832031 32.535156 L 190.113281 32.535156 C 189.511719 32.535156 189.273438 33.074219 189.871094 33.433594 C 191.972656 34.605469 192.332031 34.515625 192.332031 36.179688 L 192.332031 51.75 C 192.332031 53.414062 191.972656 53.324219 189.871094 54.496094 C 189.273438 54.855469 189.511719 55.441406 190.113281 55.441406 L 196.292969 55.441406 C 196.894531 55.441406 197.132812 54.855469 196.472656 54.496094 C 194.433594 53.324219 194.011719 53.414062 194.011719 51.75 L 194.011719 36.136719 L 204.273438 52.289062 C 205.710938 54.449219 207.574219 55.441406 210.871094 55.441406 L 217.589844 55.441406 C 218.253906 55.441406 218.492188 54.855469 217.832031 54.496094 C 215.792969 53.324219 215.371094 53.414062 215.371094 51.75 L 215.371094 36.179688 C 215.371094 34.515625 215.792969 34.605469 217.832031 33.433594 Z M 217.832031 33.433594 "/>
<path style=" stroke:none;fill-rule:nonzero;fill:rgb(100%,99.607843%,100%);fill-opacity:1;" d="M 238.292969 50.265625 C 236.617188 51.929688 232.953125 52.515625 230.734375 52.066406 C 228.335938 51.523438 227.011719 50.265625 226.414062 48.78125 C 227.671875 49.183594 229.054688 49.453125 230.617188 49.453125 C 235.292969 49.453125 239.132812 47.070312 239.132812 44.144531 C 239.132812 41.175781 234.09375 38.789062 229.414062 38.789062 C 222.214844 38.789062 216.933594 42.523438 216.933594 47.113281 C 216.933594 51.703125 222.273438 55.441406 228.933594 55.441406 C 233.554688 55.441406 237.574219 53.59375 239.554688 50.941406 C 239.914062 50.445312 238.890625 49.679688 238.292969 50.265625 Z M 229.117188 40.050781 C 230.734375 40.050781 231.871094 41.894531 231.871094 44.144531 C 231.871094 46.351562 230.734375 48.195312 229.117188 48.195312 C 227.671875 48.195312 226.171875 46.710938 226.171875 44.324219 C 226.171875 41.445312 228.152344 40.050781 229.117188 40.050781 Z M 229.117188 40.050781 "/>
<path style=" stroke:none;fill-rule:nonzero;fill:rgb(100%,99.607843%,100%);fill-opacity:1;" d="M 278.851562 38.789062 L 271.953125 38.789062 C 271.113281 38.789062 270.929688 39.328125 271.351562 39.734375 C 273.632812 41.804688 270.15625 52.066406 270.15625 52.066406 C 269.851562 51.660156 264.332031 42.523438 267.691406 39.734375 C 268.171875 39.328125 267.753906 38.789062 267.15625 38.789062 L 254.191406 38.789062 C 252.929688 38.789062 253.289062 39.554688 254.015625 39.914062 C 255.09375 40.363281 256.050781 41.128906 257.132812 42.886719 C 257.015625 46.621094 255.15625 52.066406 255.15625 52.066406 C 254.851562 51.660156 249.332031 42.523438 252.691406 39.734375 C 253.171875 39.328125 252.753906 38.789062 252.09375 38.789062 L 239.191406 38.789062 C 237.929688 38.789062 238.234375 39.554688 239.015625 39.914062 C 240.753906 40.679688 242.191406 42.253906 244.414062 47.65625 L 246.875 53.683594 C 247.351562 54.898438 248.070312 55.441406 249.929688 55.441406 L 253.894531 55.441406 C 255.210938 55.441406 255.753906 54.675781 256.113281 53.773438 L 258.992188 46.664062 C 259.171875 46.980469 259.289062 47.296875 259.414062 47.65625 L 261.875 53.683594 C 262.351562 54.898438 263.070312 55.441406 264.929688 55.441406 L 268.894531 55.441406 C 270.210938 55.441406 270.753906 54.675781 271.113281 53.773438 L 275.3125 43.558594 C 275.972656 41.894531 276.570312 40.636719 278.671875 39.734375 C 279.453125 39.375 279.570312 38.789062 278.851562 38.789062 Z M 278.851562 38.789062 "/>
<path style=" stroke:none;fill-rule:nonzero;fill:rgb(100%,99.607843%,100%);fill-opacity:1;" d="M 286.175781 41.21875 C 286.472656 39.691406 289.351562 39.511719 289.113281 41.984375 C 288.632812 45.945312 298.773438 45.269531 296.675781 41.804688 C 295.351562 39.601562 290.851562 38.746094 287.074219 38.789062 L 286.957031 38.789062 C 281.613281 38.925781 277.414062 41.039062 277.957031 44.371094 C 278.675781 48.871094 289.894531 49.183594 288.695312 53.011719 C 288.273438 54.496094 285.511719 54.71875 285.816406 52.246094 C 286.230469 48.285156 276.089844 48.960938 278.195312 52.425781 C 279.511719 54.585938 283.957031 55.484375 287.792969 55.441406 L 287.914062 55.394531 C 293.132812 55.304688 297.511719 52.605469 296.972656 50.085938 C 296.074219 45.945312 285.273438 45.089844 286.175781 41.21875 Z M 286.175781 41.21875 "/>
<path style=" stroke:none;fill-rule:nonzero;fill:rgb(100%,99.607843%,100%);fill-opacity:1;" d="M 308.851562 54.316406 C 306.632812 53.054688 305.429688 42.253906 307.53125 33.660156 C 307.648438 33.074219 308.191406 32.308594 306.929688 32.535156 C 304.710938 32.851562 302.070312 35.820312 296.3125 35.820312 C 295.710938 35.820312 295.472656 36.359375 296.070312 36.71875 C 298.171875 37.890625 298.53125 38.878906 298.53125 40.546875 L 298.53125 50.671875 C 298.53125 52.335938 298.171875 53.324219 296.070312 54.496094 C 295.472656 54.855469 295.710938 55.441406 296.3125 55.441406 L 308.191406 55.441406 C 309.515625 55.441406 309.453125 54.675781 308.851562 54.316406 Z M 308.851562 54.316406 "/>
<path style=" stroke:none;fill-rule:nonzero;fill:rgb(100%,99.607843%,100%);fill-opacity:1;" d="M 329.132812 50.265625 C 327.457031 51.929688 323.792969 52.515625 321.574219 52.066406 C 319.175781 51.523438 317.851562 50.265625 317.253906 48.78125 C 318.511719 49.183594 319.894531 49.453125 321.457031 49.453125 C 326.132812 49.453125 329.972656 47.070312 329.972656 44.144531 C 329.972656 41.175781 324.933594 38.789062 320.253906 38.789062 C 313.054688 38.789062 307.773438 42.523438 307.773438 47.113281 C 307.773438 51.703125 313.113281 55.441406 319.773438 55.441406 C 324.394531 55.441406 328.414062 53.59375 330.394531 50.941406 C 330.753906 50.445312 329.730469 49.679688 329.132812 50.265625 Z M 319.957031 40.050781 C 321.574219 40.050781 322.710938 41.894531 322.710938 44.144531 C 322.710938 46.351562 321.574219 48.195312 319.957031 48.195312 C 318.511719 48.195312 317.011719 46.710938 317.011719 44.324219 C 317.011719 41.445312 318.992188 40.050781 319.957031 40.050781 Z M 319.957031 40.050781 "/>
<path style=" stroke:none;fill-rule:nonzero;fill:rgb(100%,99.607843%,100%);fill-opacity:1;" d="M 343.953125 40.769531 L 341.191406 40.769531 C 341.375 39.285156 341.671875 37.753906 342.03125 36.179688 C 342.152344 35.59375 341.613281 34.875 340.410156 35.234375 C 337.59375 36 336.332031 40.769531 330.574219 40.769531 L 330.214844 40.769531 C 329.433594 40.769531 329.191406 41.265625 329.191406 41.851562 C 329.191406 42.433594 329.433594 42.929688 330.214844 42.929688 L 331.53125 42.929688 C 332.375 44.414062 332.3125 46.441406 332.3125 47.609375 C 332.3125 49.546875 332.375 52.921875 330.390625 54.316406 C 329.792969 54.71875 329.792969 55.441406 330.574219 55.441406 L 342.691406 55.441406 C 344.011719 55.441406 343.953125 54.675781 343.355469 54.316406 C 341.734375 53.371094 340.652344 48.734375 341.011719 42.929688 L 343.953125 42.929688 C 344.734375 42.929688 344.972656 42.433594 344.972656 41.851562 C 344.972656 41.265625 344.734375 40.769531 343.953125 40.769531 Z M 343.953125 40.769531 "/>
<path style=" stroke:none;fill-rule:nonzero;fill:rgb(100%,99.607843%,100%);fill-opacity:1;" d="M 358.292969 40.769531 L 355.53125 40.769531 C 355.714844 39.285156 356.011719 37.753906 356.371094 36.179688 C 356.492188 35.59375 355.953125 34.875 354.75 35.234375 C 351.933594 36 350.671875 40.769531 344.914062 40.769531 L 344.554688 40.769531 C 343.773438 40.769531 343.53125 41.265625 343.53125 41.851562 C 343.53125 42.433594 343.773438 42.929688 344.554688 42.929688 L 345.871094 42.929688 C 346.714844 44.414062 346.652344 46.441406 346.652344 47.609375 C 346.652344 49.546875 346.714844 52.921875 344.730469 54.316406 C 344.132812 54.71875 344.132812 55.441406 344.914062 55.441406 L 357.03125 55.441406 C 358.351562 55.441406 358.292969 54.675781 357.695312 54.316406 C 356.074219 53.371094 354.992188 48.734375 355.351562 42.929688 L 358.292969 42.929688 C 359.074219 42.929688 359.3125 42.433594 359.3125 41.851562 C 359.3125 41.265625 359.074219 40.769531 358.292969 40.769531 Z M 358.292969 40.769531 "/>
<path style=" stroke:none;fill-rule:nonzero;fill:rgb(100%,99.607843%,100%);fill-opacity:1;" d="M 379.230469 50.265625 C 377.554688 51.929688 373.894531 52.515625 371.675781 52.066406 C 369.273438 51.523438 367.949219 50.265625 367.351562 48.78125 C 368.613281 49.183594 369.992188 49.453125 371.554688 49.453125 C 376.230469 49.453125 380.070312 47.070312 380.070312 44.144531 C 380.070312 41.175781 375.035156 38.789062 370.351562 38.789062 C 363.152344 38.789062 357.871094 42.523438 357.871094 47.113281 C 357.871094 51.703125 363.210938 55.441406 369.871094 55.441406 C 374.492188 55.441406 378.511719 53.59375 380.492188 50.941406 C 380.851562 50.445312 379.832031 49.679688 379.230469 50.265625 Z M 370.054688 40.050781 C 371.675781 40.050781 372.808594 41.894531 372.808594 44.144531 C 372.808594 46.351562 371.675781 48.195312 370.054688 48.195312 C 368.613281 48.195312 367.113281 46.710938 367.113281 44.324219 C 367.113281 41.445312 369.089844 40.050781 370.054688 40.050781 Z M 370.054688 40.050781 "/>
<path style=" stroke:none;fill-rule:nonzero;fill:rgb(100%,99.607843%,100%);fill-opacity:1;" d="M 397.53125 38.789062 C 394.53125 38.789062 391.773438 41.355469 390.390625 42.886719 L 390.871094 39.960938 C 390.992188 39.375 391.59375 38.65625 390.335938 38.835938 C 388.054688 39.195312 385.652344 42.121094 379.890625 42.121094 C 379.292969 42.121094 379.054688 42.660156 379.652344 43.019531 C 381.75 44.234375 382.109375 45.226562 382.109375 46.890625 L 382.109375 50.671875 C 382.109375 52.335938 381.75 53.324219 379.652344 54.496094 C 379.054688 54.855469 379.292969 55.441406 379.890625 55.441406 L 391.59375 55.441406 C 392.855469 55.441406 392.855469 54.675781 392.195312 54.316406 C 390.511719 53.371094 389.671875 50.175781 390.09375 45.179688 C 391.230469 43.558594 393.273438 41.894531 394.714844 41.894531 C 395.792969 41.894531 395.25 42.796875 395.011719 43.785156 C 394.355469 47.296875 404.433594 45.898438 403.292969 41.625 C 402.8125 39.734375 399.871094 38.789062 397.53125 38.789062 Z M 397.53125 38.789062 "/>
<path style=" stroke:none;fill-rule:nonzero;fill:rgb(100%,87.058824%,34.901961%);fill-opacity:1;" d="M 265.921875 13.472656 C 265.6875 13.472656 265.453125 13.550781 265.242188 13.695312 C 262.421875 15.597656 260.589844 18.765625 259.226562 22.589844 C 258.96875 21.199219 258.648438 19.070312 258.289062 15.949219 C 258.09375 14.320312 257.046875 13.421875 255.386719 13.421875 C 254.105469 13.421875 253.078125 14.0625 252.671875 14.65625 C 252.570312 14.816406 252.507812 14.976562 252.507812 15.117188 C 252.507812 15.390625 252.742188 15.535156 253.015625 15.535156 C 253.230469 15.535156 253.464844 15.457031 253.617188 15.261719 C 254.125 14.605469 254.65625 14.429688 255.277344 14.429688 C 256.152344 14.429688 256.664062 14.960938 256.792969 15.933594 C 257.28125 19.664062 257.578125 22.191406 258.199219 24.222656 C 258.351562 24.71875 258.710938 24.910156 259.136719 24.910156 C 259.523438 24.910156 259.796875 24.734375 259.949219 24.316406 C 261.273438 20.652344 263.105469 16.6875 266.21875 14.527344 C 266.496094 14.335938 266.625 14.144531 266.625 13.984375 C 266.625 13.695312 266.328125 13.472656 265.921875 13.472656 Z M 265.921875 13.472656 "/>
<path style=" stroke:none;fill-rule:nonzero;fill:rgb(100%,87.058824%,34.901961%);fill-opacity:1;" d="M 265.089844 17.550781 C 265.558594 17.550781 265.917969 17.277344 265.917969 16.925781 C 265.917969 16.574219 265.558594 16.304688 265.089844 16.304688 C 264.621094 16.304688 264.257812 16.574219 264.257812 16.925781 C 264.257812 17.277344 264.621094 17.550781 265.089844 17.550781 Z M 265.753906 24.828125 C 267.050781 24.828125 268.160156 23.804688 269.355469 21.375 C 269.398438 21.292969 269.417969 21.214844 269.417969 21.148438 C 269.417969 20.878906 269.164062 20.6875 268.886719 20.6875 C 268.675781 20.6875 268.460938 20.796875 268.332031 21.039062 C 267.285156 22.972656 266.621094 23.835938 265.917969 23.835938 C 265.410156 23.835938 264.960938 23.5 264.960938 22.367188 C 264.960938 21.679688 265.070312 20.832031 265.429688 19.039062 C 265.519531 18.621094 265.152344 18.382812 264.789062 18.382812 C 264.449219 18.382812 264.105469 18.558594 264.003906 18.992188 C 263.789062 19.886719 263.554688 21.4375 263.554688 22.269531 C 263.554688 24.140625 264.511719 24.828125 265.753906 24.828125 Z M 265.753906 24.828125 "/>
<path style=" stroke:none;fill-rule:nonzero;fill:rgb(100%,87.058824%,34.901961%);fill-opacity:1;" d="M 277.246094 21.039062 C 276.21875 22.941406 275.539062 23.835938 274.984375 23.835938 C 274.539062 23.835938 274.195312 23.566406 274.195312 22.636719 C 274.195312 21.070312 274.496094 19.199219 274.496094 18.863281 C 274.496094 18.527344 274.195312 18.320312 273.835938 18.320312 C 273.46875 18.320312 273.195312 18.527344 273.042969 18.847656 C 272.492188 18.542969 271.808594 18.398438 271.25 18.398438 C 269.246094 18.398438 267.242188 19.917969 267.242188 22.140625 C 267.242188 23.855469 268.523438 24.828125 270.164062 24.828125 C 271.125 24.828125 272.085938 24.492188 272.9375 23.519531 C 273.257812 24.398438 273.9375 24.828125 274.902344 24.828125 C 276.136719 24.828125 277.09375 23.773438 278.273438 21.375 C 278.3125 21.292969 278.335938 21.214844 278.335938 21.148438 C 278.335938 20.894531 278.078125 20.71875 277.796875 20.71875 C 277.589844 20.71875 277.375 20.8125 277.246094 21.039062 Z M 270.375 23.835938 C 269.375 23.835938 268.652344 23.292969 268.652344 22.09375 C 268.652344 20.429688 270.078125 19.34375 271.507812 19.34375 C 272.125 19.34375 272.746094 19.597656 272.9375 19.824219 C 272.980469 22.335938 271.871094 23.835938 270.375 23.835938 Z M 270.375 23.835938 "/>
<path style=" stroke:none;fill-rule:nonzero;fill:rgb(100%,87.058824%,34.901961%);fill-opacity:1;" d="M 277.417969 17.566406 C 277.886719 17.566406 278.25 17.292969 278.25 16.941406 C 278.25 16.589844 277.886719 16.320312 277.417969 16.320312 C 276.949219 16.320312 276.582031 16.589844 276.582031 16.941406 C 276.582031 17.292969 276.949219 17.566406 277.417969 17.566406 Z M 279.890625 21.039062 C 279.402344 21.964844 278.503906 23.421875 277.4375 24.125 L 277.5 23.597656 C 277.652344 22.191406 277.800781 20.335938 277.988281 18.894531 C 278.035156 18.558594 277.734375 18.320312 277.285156 18.320312 C 276.90625 18.320312 276.625 18.511719 276.582031 18.816406 C 276.390625 20.253906 276.246094 22.109375 276.09375 23.597656 L 275.964844 24.703125 C 273.683594 25.582031 272.316406 26.269531 272.316406 27.4375 C 272.316406 28.171875 273.109375 28.765625 274.34375 28.765625 C 276.050781 28.765625 277.011719 27.515625 277.246094 25.675781 C 277.246094 25.597656 277.265625 25.5 277.285156 25.40625 C 279.125 24.445312 280.0625 23.070312 280.917969 21.375 C 280.957031 21.292969 280.980469 21.214844 280.980469 21.148438 C 280.980469 20.878906 280.722656 20.71875 280.441406 20.71875 C 280.234375 20.71875 279.996094 20.8125 279.890625 21.039062 Z M 274.34375 27.773438 C 273.957031 27.773438 273.703125 27.597656 273.703125 27.324219 C 273.703125 26.828125 274.453125 26.332031 275.796875 25.804688 C 275.542969 27.179688 275.15625 27.773438 274.34375 27.773438 Z M 274.34375 27.773438 "/>
<path style=" stroke:none;fill-rule:nonzero;fill:rgb(100%,87.058824%,34.901961%);fill-opacity:1;" d="M 288.804688 21.039062 C 287.78125 22.941406 287.097656 23.835938 286.546875 23.835938 C 286.097656 23.835938 285.753906 23.566406 285.753906 22.636719 C 285.753906 21.070312 286.054688 19.199219 286.054688 18.863281 C 286.054688 18.527344 285.753906 18.320312 285.394531 18.320312 C 285.03125 18.320312 284.753906 18.527344 284.601562 18.847656 C 284.050781 18.542969 283.367188 18.398438 282.8125 18.398438 C 280.804688 18.398438 278.800781 19.917969 278.800781 22.140625 C 278.800781 23.855469 280.082031 24.828125 281.722656 24.828125 C 282.6875 24.828125 283.644531 24.492188 284.5 23.519531 C 284.816406 24.398438 285.5 24.828125 286.460938 24.828125 C 287.695312 24.828125 288.65625 23.773438 289.832031 21.375 C 289.875 21.292969 289.894531 21.214844 289.894531 21.148438 C 289.894531 20.894531 289.640625 20.71875 289.359375 20.71875 C 289.148438 20.71875 288.9375 20.8125 288.804688 21.039062 Z M 281.9375 23.835938 C 280.9375 23.835938 280.210938 23.292969 280.210938 22.09375 C 280.210938 20.429688 281.640625 19.34375 283.066406 19.34375 C 283.6875 19.34375 284.304688 19.597656 284.5 19.824219 C 284.539062 22.335938 283.429688 23.835938 281.9375 23.835938 Z M 281.9375 23.835938 "/>
<path style=" stroke:none;fill-rule:nonzero;fill:rgb(100%,87.058824%,34.901961%);fill-opacity:1;" d="M 312.136719 21.039062 C 311.199219 22.925781 310.414062 23.871094 309.773438 23.871094 C 309.386719 23.871094 309.132812 23.628906 309.132812 22.878906 C 309.132812 22.398438 309.476562 18.414062 309.476562 17.359375 C 309.476562 15.757812 308.429688 14.976562 306.742188 14.976562 C 304.929688 14.976562 303.414062 15.917969 302.242188 17.664062 C 302.261719 17.328125 302.261719 16.976562 302.261719 16.640625 C 302.261719 14.160156 301.027344 13.246094 299.277344 13.246094 C 297.019531 13.246094 295.183594 14.816406 293.925781 17.679688 C 293.648438 14.144531 292.261719 13.296875 290.445312 13.296875 C 289.425781 13.296875 288.652344 13.648438 288.039062 14.320312 C 287.847656 14.527344 287.757812 14.734375 287.757812 14.910156 C 287.757812 15.183594 287.996094 15.390625 288.292969 15.390625 C 288.527344 15.390625 288.761719 15.261719 288.933594 15.054688 C 289.382812 14.527344 289.894531 14.304688 290.445312 14.304688 C 292.003906 14.304688 292.539062 16.160156 292.539062 19.980469 C 292.539062 21.4375 292.070312 23.46875 292.070312 24.238281 C 292.070312 24.621094 292.347656 24.863281 292.773438 24.863281 C 293.199219 24.863281 293.476562 24.636719 293.539062 24.269531 C 293.585938 24.015625 293.730469 23.007812 293.882812 21.933594 C 294.585938 17.597656 296.722656 14.253906 299.066406 14.253906 C 300.152344 14.253906 300.792969 14.734375 300.792969 16.574219 C 300.792969 19.4375 300.238281 21.292969 299.960938 22.796875 C 299.941406 22.910156 299.855469 23.246094 299.855469 23.34375 C 299.855469 23.695312 300.132812 23.917969 300.558594 23.917969 C 300.941406 23.917969 301.242188 23.710938 301.324219 23.390625 C 301.496094 22.71875 301.667969 22 301.816406 21.214844 C 302.628906 18.144531 304.695312 15.984375 306.679688 15.984375 C 307.472656 15.984375 307.980469 16.367188 307.980469 17.390625 C 307.980469 18.589844 307.636719 22.078125 307.636719 22.765625 C 307.636719 24.238281 308.449219 24.878906 309.664062 24.878906 C 311.136719 24.878906 312.035156 23.695312 313.164062 21.375 C 313.207031 21.292969 313.226562 21.214844 313.226562 21.132812 C 313.226562 20.863281 312.972656 20.6875 312.695312 20.6875 C 312.480469 20.6875 312.269531 20.796875 312.136719 21.039062 Z M 312.136719 21.039062 "/>
<path style=" stroke:none;fill-rule:nonzero;fill:rgb(100%,87.058824%,34.901961%);fill-opacity:1;" d="M 321.054688 21.039062 C 320.027344 22.941406 319.34375 23.835938 318.792969 23.835938 C 318.34375 23.835938 318 23.566406 318 22.636719 C 318 21.070312 318.304688 19.199219 318.304688 18.863281 C 318.304688 18.527344 318 18.320312 317.640625 18.320312 C 317.277344 18.320312 317 18.527344 316.851562 18.847656 C 316.296875 18.542969 315.617188 18.398438 315.058594 18.398438 C 313.054688 18.398438 311.046875 19.917969 311.046875 22.140625 C 311.046875 23.855469 312.328125 24.828125 313.96875 24.828125 C 314.933594 24.828125 315.890625 24.492188 316.746094 23.519531 C 317.0625 24.398438 317.746094 24.828125 318.710938 24.828125 C 319.945312 24.828125 320.902344 23.773438 322.078125 21.375 C 322.121094 21.292969 322.140625 21.214844 322.140625 21.148438 C 322.140625 20.894531 321.886719 20.71875 321.605469 20.71875 C 321.398438 20.71875 321.183594 20.8125 321.054688 21.039062 Z M 314.183594 23.835938 C 313.183594 23.835938 312.460938 23.292969 312.460938 22.09375 C 312.460938 20.429688 313.886719 19.34375 315.3125 19.34375 C 315.933594 19.34375 316.554688 19.597656 316.746094 19.824219 C 316.789062 22.335938 315.679688 23.835938 314.183594 23.835938 Z M 314.183594 23.835938 "/>
<path style=" stroke:none;fill-rule:nonzero;fill:rgb(100%,87.058824%,34.901961%);fill-opacity:1;" d="M 321.609375 17.550781 C 322.078125 17.550781 322.4375 17.277344 322.4375 16.925781 C 322.4375 16.574219 322.078125 16.304688 321.609375 16.304688 C 321.140625 16.304688 320.777344 16.574219 320.777344 16.925781 C 320.777344 17.277344 321.140625 17.550781 321.609375 17.550781 Z M 322.269531 24.828125 C 323.566406 24.828125 324.675781 23.804688 325.875 21.375 C 325.917969 21.292969 325.9375 21.214844 325.9375 21.148438 C 325.9375 20.878906 325.683594 20.6875 325.40625 20.6875 C 325.191406 20.6875 324.980469 20.796875 324.847656 21.039062 C 323.800781 22.972656 323.140625 23.835938 322.4375 23.835938 C 321.925781 23.835938 321.480469 23.5 321.480469 22.367188 C 321.480469 21.679688 321.589844 20.832031 321.949219 19.039062 C 322.035156 18.621094 321.671875 18.382812 321.308594 18.382812 C 320.96875 18.382812 320.625 18.558594 320.519531 18.992188 C 320.308594 19.886719 320.074219 21.4375 320.074219 22.269531 C 320.074219 24.140625 321.03125 24.828125 322.269531 24.828125 Z M 322.269531 24.828125 "/>
<path style=" stroke:none;fill-rule:nonzero;fill:rgb(100%,87.058824%,34.901961%);fill-opacity:1;" d="M 329.863281 21.039062 C 329.371094 22.015625 328.175781 23.757812 327.046875 23.757812 C 326.214844 23.757812 325.511719 22.941406 325.359375 21.34375 C 328.238281 19.023438 329.371094 17.039062 329.371094 15.261719 C 329.371094 14.160156 328.625 13.519531 327.558594 13.519531 C 325.144531 13.519531 323.910156 15.984375 323.910156 20.621094 C 323.910156 23.421875 325.214844 24.75 327.046875 24.75 C 328.371094 24.75 329.628906 23.804688 330.886719 21.375 C 330.925781 21.292969 330.949219 21.214844 330.949219 21.148438 C 330.949219 20.878906 330.691406 20.6875 330.417969 20.6875 C 330.203125 20.6875 329.988281 20.796875 329.863281 21.039062 Z M 327.363281 14.511719 C 327.730469 14.511719 327.964844 14.71875 327.964844 15.261719 C 327.964844 16.6875 327.027344 18.335938 325.316406 19.964844 C 325.425781 16.800781 326.253906 14.511719 327.363281 14.511719 Z M 327.363281 14.511719 "/>
</g>
</svg>
